<svg width="31" height="32" viewBox="0 0 31 32" fill="none" xmlns="http://www.w3.org/2000/svg">
<path fill-rule="evenodd" clip-rule="evenodd" d="M17.937 7.90711L18.3398 7.75193L13.4388 0L13.1574 0.128543C12.4364 0.457895 11.7364 0.826913 11.0599 1.22849C10.2965 1.68261 9.56054 2.18015 8.85873 2.71956L8.59455 2.9226L13.6847 10.4628L14.1695 10.0637C14.6783 9.66595 15.212 9.29982 15.7695 8.96894C16.3012 8.65307 16.8539 8.36879 17.4251 8.11869C17.5943 8.04444 17.7657 7.97314 17.937 7.90711Z" fill="#FF244C"/>
<path fill-rule="evenodd" clip-rule="evenodd" d="M30.8055 27.7352L27.0255 24.5019L26.7951 24.7713C25.8309 25.8988 24.4762 26.7004 22.8974 26.9473C19.3833 27.4968 16.0833 25.0893 15.5338 21.5752C14.9842 18.0608 17.3917 14.7613 20.9058 14.2117C21.6977 14.0879 22.4782 14.1142 23.2187 14.2693L19.0799 18.9622L22.8658 22.1917L30.8512 13.0061L28.7142 11.4172C26.3409 9.65295 23.2879 8.80477 20.1374 9.29745C13.9106 10.2712 9.64583 16.1169 10.6196 22.3437C11.5933 28.5704 17.4391 32.8352 23.6659 31.8615C26.4641 31.4239 28.8668 30.0017 30.5751 28.0045L30.8055 27.7352ZM22.9522 27.2974C24.6178 27.0369 26.0475 26.1909 27.0645 25.0016L27.0633 25.0028C26.0464 26.1914 24.6172 27.037 22.9522 27.2974Z" fill="#FF244C"/>
<path fill-rule="evenodd" clip-rule="evenodd" d="M10.911 12.6739L2.06184 8.8722L1.9042 9.14408C1.73618 9.43384 1.57555 9.72746 1.42061 10.0233L0.979094 10.9203L0.975252 10.9287C0.87765 11.1407 0.781127 11.3561 0.689572 11.5753C0.476208 12.0712 0.282437 12.5765 0.106594 13.0892L0 13.4L8.80372 17.1823L8.99294 16.568C9.17951 15.9952 9.39913 15.4373 9.65011 14.8968C9.875 14.4139 10.1241 13.9444 10.3962 13.4903L10.911 12.6739Z" fill="#FF244C"/>
</svg>
