<svg width="201" height="46" viewBox="0 0 201 46" fill="none" xmlns="http://www.w3.org/2000/svg">
<path fill-rule="evenodd" clip-rule="evenodd" d="M25.3104 11.1575L25.8787 10.9385L18.9631 0L18.5661 0.181383C17.5487 0.646123 16.5609 1.16683 15.6063 1.73349C14.5291 2.37429 13.4906 3.07635 12.5003 3.83749L12.1275 4.124L19.3101 14.7638L19.9943 14.2007C20.7122 13.6394 21.4652 13.1227 22.2519 12.6558C23.0022 12.2101 23.7821 11.809 24.5881 11.4561C24.8269 11.3513 25.0686 11.2507 25.3104 11.1575ZM18.7739 0.636276L18.7738 0.636181C17.7735 1.09311 16.8019 1.60519 15.862 2.16321C14.8013 2.79417 13.7792 3.48517 12.805 4.23393L19.4169 14.0283L19.417 14.0283L12.8052 4.23398C13.7794 3.48522 14.8014 2.79422 15.8621 2.16326C16.8021 1.60526 17.7736 1.09319 18.7739 0.636276ZM43.4687 39.1364L38.1349 34.574L37.8099 34.9541C36.4493 36.5451 34.5378 37.6762 32.3099 38.0245C27.3513 38.8 22.6947 35.4029 21.9193 30.4442C21.1438 25.4851 24.541 20.8292 29.4997 20.0538C30.6171 19.8791 31.7184 19.9162 32.7633 20.135L26.9231 26.757L32.2654 31.3141L43.5333 18.3525L40.5178 16.1105C37.1689 13.621 32.8609 12.4242 28.4153 13.1194C19.6289 14.4934 13.611 22.7421 14.985 31.5286C16.359 40.315 24.6079 46.3329 33.3943 44.9589C37.3427 44.3414 40.7332 42.3346 43.1437 39.5163L43.4687 39.1364ZM29.6092 38.5477C30.5101 38.6705 31.4435 38.6662 32.3873 38.5186C34.7375 38.1511 36.755 36.9572 38.19 35.2791L38.1899 35.279L38.1883 35.2808C36.7534 36.958 34.7366 38.1511 32.3871 38.5185C31.4434 38.6661 30.51 38.6704 29.6092 38.5477ZM23.574 42.8221C19.3903 40.5917 16.2673 36.4916 15.4791 31.4514C14.1478 22.9377 19.9792 14.9447 28.4927 13.6134C30.108 13.3608 31.7044 13.3659 33.2402 13.5982C31.7044 13.3659 30.1079 13.3608 28.4925 13.6134C19.979 14.9447 14.1476 22.9376 15.479 31.4514C16.2672 36.4916 19.3903 40.5917 23.574 42.8221ZM27.6343 26.7065L33.6783 19.8534C33.6783 19.8534 33.6784 19.8535 33.6784 19.8535L27.6345 26.7066L32.213 30.6122L32.213 30.6123L27.6343 26.7065ZM15.3962 17.8837L2.90941 12.5193L2.68696 12.903C2.44988 13.3118 2.22321 13.7262 2.00458 14.1437L1.38157 15.4094L1.37615 15.4212C1.23843 15.7204 1.10223 16.0243 0.973036 16.3336C0.671964 17.0333 0.39854 17.7463 0.150412 18.4699L0 18.9084L12.4227 24.2455L12.6897 23.3787C12.953 22.5704 13.2629 21.7831 13.617 21.0204C13.9343 20.339 14.2859 19.6766 14.6699 19.0358L15.3962 17.8837ZM0.623371 18.6321C0.867931 17.919 1.13719 17.217 1.43338 16.5288C1.5597 16.2262 1.69356 15.9274 1.83035 15.6302L2.44767 14.3757C2.66355 13.9634 2.88661 13.5554 3.11951 13.1538L3.11967 13.1538C2.88677 13.5555 2.66372 13.9635 2.44783 14.3757L1.83052 15.6303C1.69372 15.9275 1.55986 16.2263 1.43355 16.5289C1.13735 17.217 0.868096 17.919 0.623535 18.6321L0.623371 18.6321Z" fill="#FF244C"/>
<path d="M70.9288 42.6834V26.8548C70.9288 25.2167 70.4046 23.8834 69.3562 22.8548C68.3079 21.8263 66.9489 21.312 65.2793 21.312C64.1921 21.312 63.2214 21.5406 62.3672 21.9977C61.5129 22.4548 60.8334 23.1025 60.3287 23.9406C59.8627 24.7787 59.6298 25.7501 59.6298 26.8548L56.6594 25.3691C56.6594 23.1977 57.1253 21.312 58.0572 19.712C59.0279 18.0739 60.3481 16.7977 62.0177 15.8834C63.7261 14.9691 65.6481 14.512 67.7837 14.512C69.8416 14.512 71.6859 15.0263 73.3167 16.0548C74.9475 17.0453 76.2288 18.3596 77.1607 19.9977C78.0926 21.5977 78.5585 23.331 78.5585 25.1977V42.6834H70.9288ZM52 42.6834V15.0834H59.6298V42.6834H52Z" fill="#0F1429"/>
<path d="M98.8625 43.2549C95.9892 43.2549 93.4072 42.6263 91.1163 41.3691C88.8254 40.112 87.0199 38.3977 85.6997 36.2263C84.3796 34.0549 83.7195 31.6168 83.7195 28.912C83.7195 26.1691 84.3796 23.712 85.6997 21.5406C87.0199 19.3691 88.8254 17.6548 91.1163 16.3977C93.446 15.1025 96.0281 14.4548 98.8625 14.4548C101.076 14.4548 103.114 14.8548 104.978 15.6548C106.842 16.4548 108.453 17.5977 109.812 19.0834L104.92 23.9406C104.182 23.1406 103.289 22.531 102.241 22.112C101.231 21.6929 100.105 21.4834 98.8625 21.4834C97.4647 21.4834 96.2028 21.8072 95.0768 22.4548C93.9896 23.0644 93.116 23.9215 92.4559 25.0263C91.8346 26.0929 91.524 27.3691 91.524 28.8548C91.524 30.3025 91.8346 31.5977 92.4559 32.7406C93.116 33.8453 93.9896 34.7215 95.0768 35.3691C96.2028 35.9787 97.4647 36.2834 98.8625 36.2834C100.144 36.2834 101.289 36.0739 102.299 35.6549C103.347 35.1977 104.24 34.5501 104.978 33.712L109.929 38.5691C108.492 40.093 106.842 41.2549 104.978 42.0549C103.114 42.8549 101.076 43.2549 98.8625 43.2549Z" fill="#0F1429"/>
<path d="M128.349 43.2549C125.515 43.2549 122.952 42.6263 120.661 41.3691C118.409 40.0739 116.604 38.3406 115.245 36.1691C113.925 33.9596 113.264 31.5025 113.264 28.7977C113.264 26.0929 113.925 23.6739 115.245 21.5406C116.565 19.3691 118.37 17.6548 120.661 16.3977C122.952 15.1025 125.495 14.4548 128.291 14.4548C131.164 14.4548 133.727 15.1025 135.979 16.3977C138.27 17.6548 140.075 19.3691 141.396 21.5406C142.716 23.6739 143.376 26.0929 143.376 28.7977C143.376 31.5025 142.716 33.9596 141.396 36.1691C140.075 38.3406 138.27 40.0739 135.979 41.3691C133.727 42.6263 131.184 43.2549 128.349 43.2549ZM128.291 36.2834C129.728 36.2834 130.99 35.9787 132.077 35.3691C133.203 34.7215 134.057 33.8453 134.639 32.7406C135.261 31.5977 135.571 30.3025 135.571 28.8548C135.571 27.4072 135.261 26.131 134.639 25.0263C134.018 23.9215 133.164 23.0644 132.077 22.4548C130.99 21.8072 129.728 21.4834 128.291 21.4834C126.893 21.4834 125.651 21.8072 124.564 22.4548C123.476 23.0644 122.622 23.9215 122.001 25.0263C121.38 26.131 121.069 27.4072 121.069 28.8548C121.069 30.3025 121.38 31.5977 122.001 32.7406C122.622 33.8453 123.476 34.7215 124.564 35.3691C125.651 35.9787 126.893 36.2834 128.291 36.2834Z" fill="#0F1429"/>
<path d="M148.697 42.6834V15.0834H156.327V42.6834H148.697ZM156.327 27.4263L153.356 25.4834C153.706 22.0929 154.715 19.4263 156.385 17.4834C158.054 15.5025 160.462 14.512 163.607 14.512C164.966 14.512 166.189 14.7405 167.276 15.1977C168.363 15.6167 169.353 16.3215 170.247 17.312L165.471 22.6834C165.044 22.2263 164.519 21.8834 163.898 21.6548C163.316 21.4263 162.636 21.312 161.86 21.312C160.229 21.312 158.889 21.8263 157.841 22.8548C156.831 23.8453 156.327 25.3691 156.327 27.4263Z" fill="#0F1429"/>
<path d="M185.291 43.2549C182.456 43.2549 179.894 42.6263 177.603 41.3691C175.351 40.0739 173.545 38.3406 172.186 36.1691C170.866 33.9596 170.206 31.5025 170.206 28.7977C170.206 26.0929 170.866 23.6739 172.186 21.5406C173.506 19.3691 175.312 17.6548 177.603 16.3977C179.894 15.1025 182.437 14.4548 185.232 14.4548C188.106 14.4548 190.668 15.1025 192.921 16.3977C195.211 17.6548 197.017 19.3691 198.337 21.5406C199.657 23.6739 200.317 26.0929 200.317 28.7977C200.317 31.5025 199.657 33.9596 198.337 36.1691C197.017 38.3406 195.211 40.0739 192.921 41.3691C190.668 42.6263 188.125 43.2549 185.291 43.2549ZM185.232 36.2834C186.669 36.2834 187.931 35.9787 189.018 35.3691C190.144 34.7215 190.998 33.8453 191.581 32.7406C192.202 31.5977 192.513 30.3025 192.513 28.8548C192.513 27.4072 192.202 26.131 191.581 25.0263C190.96 23.9215 190.105 23.0644 189.018 22.4548C187.931 21.8072 186.669 21.4834 185.232 21.4834C183.835 21.4834 182.592 21.8072 181.505 22.4548C180.418 23.0644 179.564 23.9215 178.942 25.0263C178.321 26.131 178.01 27.4072 178.01 28.8548C178.01 30.3025 178.321 31.5977 178.942 32.7406C179.564 33.8453 180.418 34.7215 181.505 35.3691C182.592 35.9787 183.835 36.2834 185.232 36.2834Z" fill="#0F1429"/>
</svg>
